<mxfile host="app.diagrams.net" modified="2021-12-16T13:30:19.893Z" agent="5.0 (X11; Linux x86_64) AppleWebKit/537.36 (KHTML, like Gecko) Chrome/96.0.4664.93 Safari/537.36" etag="frRrLjR0VuaWSYfcu-fz" version="15.5.1" type="github">
  <diagram id="LHdp1C9b-F5UCKWID19b" name="Page-1">
    <mxGraphModel dx="3581" dy="2115" grid="1" gridSize="10" guides="1" tooltips="1" connect="1" arrows="1" fold="1" page="1" pageScale="1" pageWidth="1169" pageHeight="827" math="0" shadow="0">
      <root>
        <mxCell id="0" />
        <mxCell id="1" parent="0" />
        <mxCell id="YtGU08_9XiSNCzKKEfij-40" value="" style="endArrow=none;dashed=1;html=1;rounded=0;fillColor=#CCCCCC;entryX=0;entryY=0.5;entryDx=0;entryDy=0;" edge="1" parent="1" source="YtGU08_9XiSNCzKKEfij-42" target="YtGU08_9XiSNCzKKEfij-2">
          <mxGeometry width="50" height="50" relative="1" as="geometry">
            <mxPoint x="160" y="155" as="sourcePoint" />
            <mxPoint x="640" y="300" as="targetPoint" />
          </mxGeometry>
        </mxCell>
        <mxCell id="YtGU08_9XiSNCzKKEfij-42" value="加载：从主存复制字节或者字到寄存器&lt;br&gt;&lt;br&gt;存储：从寄存器复制一个字节或者字到主存的某个位置，覆盖原来的内容&lt;br&gt;&lt;br&gt;操作：把两个寄存器的内容复制到ALU，做算数运算，讲结果存放到一个寄存器中&lt;br&gt;&lt;br&gt;跳转：从指令本身抽取一个字，并将这个字复制到程序计数器（PC），覆盖原值&lt;br&gt;&lt;div style=&quot;text-align: justify&quot;&gt;&lt;/div&gt;" style="rounded=1;whiteSpace=wrap;html=1;fillColor=#7EA6E0;align=left;" vertex="1" parent="1">
          <mxGeometry x="-330" y="40" width="170" height="230" as="geometry" />
        </mxCell>
        <mxCell id="YtGU08_9XiSNCzKKEfij-51" value="" style="endArrow=none;dashed=1;html=1;rounded=0;fillColor=#CCCCCC;entryX=0.108;entryY=0.55;entryDx=0;entryDy=0;entryPerimeter=0;" edge="1" parent="1" target="YtGU08_9XiSNCzKKEfij-49">
          <mxGeometry width="50" height="50" relative="1" as="geometry">
            <mxPoint x="-140" y="1034" as="sourcePoint" />
            <mxPoint x="260" y="165" as="targetPoint" />
          </mxGeometry>
        </mxCell>
        <mxCell id="YtGU08_9XiSNCzKKEfij-52" value="1：用户输入命令&lt;br&gt;2：shell执行命令加载可执行的hello文件&lt;br&gt;3：将hello目标文件中的代码和数据从磁盘复制到主存&lt;br&gt;4：采用DMA（直接存储器存取），数据可以不通过处理器直接从磁盘到达主存&lt;br&gt;5：CPU执行hello的main程序机器语言指令&lt;br&gt;6：将字符串从主存复制到寄存器文件&lt;br&gt;7：再从寄存器文件复制到显示设备，最终显示在屏幕上0&lt;br&gt;&lt;div style=&quot;text-align: justify&quot;&gt;&lt;/div&gt;" style="rounded=1;whiteSpace=wrap;html=1;fillColor=#7EA6E0;align=left;" vertex="1" parent="1">
          <mxGeometry x="-310" y="915" width="170" height="230" as="geometry" />
        </mxCell>
        <mxCell id="YtGU08_9XiSNCzKKEfij-54" value="&lt;br&gt;&lt;br&gt;&lt;br&gt;L0：寄存器&lt;br&gt;&lt;br&gt;L1：高速缓存（SRAM）&lt;br&gt;&lt;br&gt;L2：高速缓存（SRAM）&lt;br&gt;&lt;br&gt;L3：高速缓存（SRAM）&lt;br&gt;（多核情况下，所有核共享的）&lt;br&gt;&lt;br&gt;主存（DRAM）&lt;br&gt;&lt;br&gt;本地二级缓存&lt;br&gt;（本地磁盘）&lt;br&gt;&lt;br&gt;远程二级缓存&lt;br&gt;（分布式文件系统、web服务器）" style="strokeWidth=2;html=1;shape=mxgraph.flowchart.extract_or_measurement;whiteSpace=wrap;fillColor=#999999;align=center;" vertex="1" parent="1">
          <mxGeometry x="1450" y="70" width="390" height="320" as="geometry" />
        </mxCell>
        <mxCell id="YtGU08_9XiSNCzKKEfij-55" value="缓存级别" style="ellipse;shape=doubleEllipse;whiteSpace=wrap;html=1;fillColor=#FFCC99;" vertex="1" parent="1">
          <mxGeometry x="1590" y="10" width="100" height="60" as="geometry" />
        </mxCell>
        <mxCell id="YtGU08_9XiSNCzKKEfij-56" value="" style="endArrow=none;dashed=1;html=1;rounded=0;fillColor=#CCCCCC;entryX=0.01;entryY=0.97;entryDx=0;entryDy=0;entryPerimeter=0;" edge="1" parent="1" source="YtGU08_9XiSNCzKKEfij-18" target="YtGU08_9XiSNCzKKEfij-54">
          <mxGeometry width="50" height="50" relative="1" as="geometry">
            <mxPoint x="1243.52" y="490" as="sourcePoint" />
            <mxPoint x="1756.48" y="490" as="targetPoint" />
          </mxGeometry>
        </mxCell>
        <mxCell id="YtGU08_9XiSNCzKKEfij-83" value="" style="group;fillColor=#CCCCCC;" vertex="1" connectable="0" parent="1">
          <mxGeometry x="475" y="-290" width="240" height="160" as="geometry" />
        </mxCell>
        <mxCell id="YtGU08_9XiSNCzKKEfij-77" value="应用程序" style="rounded=0;whiteSpace=wrap;html=1;fillColor=#FFFFCC;align=center;" vertex="1" parent="YtGU08_9XiSNCzKKEfij-83">
          <mxGeometry y="40" width="240" height="40" as="geometry" />
        </mxCell>
        <mxCell id="YtGU08_9XiSNCzKKEfij-78" value="操作系统" style="rounded=0;whiteSpace=wrap;html=1;fillColor=#FFFFCC;align=center;" vertex="1" parent="YtGU08_9XiSNCzKKEfij-83">
          <mxGeometry y="80" width="240" height="40" as="geometry" />
        </mxCell>
        <mxCell id="YtGU08_9XiSNCzKKEfij-79" value="处理器" style="rounded=0;whiteSpace=wrap;html=1;fillColor=#FFFFCC;align=center;" vertex="1" parent="YtGU08_9XiSNCzKKEfij-83">
          <mxGeometry y="120" width="80" height="40" as="geometry" />
        </mxCell>
        <mxCell id="YtGU08_9XiSNCzKKEfij-80" value="主存" style="rounded=0;whiteSpace=wrap;html=1;fillColor=#FFFFCC;align=center;" vertex="1" parent="YtGU08_9XiSNCzKKEfij-83">
          <mxGeometry x="80" y="120" width="80" height="40" as="geometry" />
        </mxCell>
        <mxCell id="YtGU08_9XiSNCzKKEfij-81" value="I/O设备" style="rounded=0;whiteSpace=wrap;html=1;fillColor=#FFFFCC;align=center;" vertex="1" parent="YtGU08_9XiSNCzKKEfij-83">
          <mxGeometry x="160" y="120" width="80" height="40" as="geometry" />
        </mxCell>
        <mxCell id="YtGU08_9XiSNCzKKEfij-82" value="计算机系统的分层视图" style="rounded=0;whiteSpace=wrap;html=1;fillColor=#FFFFCC;align=center;" vertex="1" parent="YtGU08_9XiSNCzKKEfij-83">
          <mxGeometry width="240" height="40" as="geometry" />
        </mxCell>
        <mxCell id="YtGU08_9XiSNCzKKEfij-95" value="" style="group" vertex="1" connectable="0" parent="1">
          <mxGeometry x="820" y="-300" width="240" height="200" as="geometry" />
        </mxCell>
        <mxCell id="YtGU08_9XiSNCzKKEfij-86" value="" style="group;fillColor=#CCFFE6;container=0;" vertex="1" connectable="0" parent="YtGU08_9XiSNCzKKEfij-95">
          <mxGeometry width="240" height="160" as="geometry" />
        </mxCell>
        <mxCell id="YtGU08_9XiSNCzKKEfij-87" value="进程" style="rounded=0;whiteSpace=wrap;html=1;fillColor=#FFFFCC;align=center;" vertex="1" parent="YtGU08_9XiSNCzKKEfij-95">
          <mxGeometry y="40" width="240" height="40" as="geometry" />
        </mxCell>
        <mxCell id="YtGU08_9XiSNCzKKEfij-88" value="虚拟内存" style="rounded=0;whiteSpace=wrap;html=1;fillColor=#FFFFCC;align=center;" vertex="1" parent="YtGU08_9XiSNCzKKEfij-95">
          <mxGeometry x="80" y="80" width="160" height="40" as="geometry" />
        </mxCell>
        <mxCell id="YtGU08_9XiSNCzKKEfij-89" value="处理器" style="rounded=0;whiteSpace=wrap;html=1;fillColor=#FFFFCC;align=center;" vertex="1" parent="YtGU08_9XiSNCzKKEfij-95">
          <mxGeometry y="160" width="80" height="40" as="geometry" />
        </mxCell>
        <mxCell id="YtGU08_9XiSNCzKKEfij-90" value="主存" style="rounded=0;whiteSpace=wrap;html=1;fillColor=#FFFFCC;align=center;" vertex="1" parent="YtGU08_9XiSNCzKKEfij-95">
          <mxGeometry x="80" y="160" width="80" height="40" as="geometry" />
        </mxCell>
        <mxCell id="YtGU08_9XiSNCzKKEfij-91" value="文件" style="rounded=0;whiteSpace=wrap;html=1;fillColor=#FFFFCC;align=center;" vertex="1" parent="YtGU08_9XiSNCzKKEfij-95">
          <mxGeometry x="160" y="120" width="80" height="40" as="geometry" />
        </mxCell>
        <mxCell id="YtGU08_9XiSNCzKKEfij-92" value="操作系统提供的抽象表示" style="rounded=0;whiteSpace=wrap;html=1;fillColor=#FFFFCC;align=center;" vertex="1" parent="YtGU08_9XiSNCzKKEfij-95">
          <mxGeometry width="240" height="40" as="geometry" />
        </mxCell>
        <mxCell id="YtGU08_9XiSNCzKKEfij-94" value="I/O设备" style="rounded=0;whiteSpace=wrap;html=1;fillColor=#FFFFCC;align=center;" vertex="1" parent="YtGU08_9XiSNCzKKEfij-95">
          <mxGeometry x="160" y="160" width="80" height="40" as="geometry" />
        </mxCell>
        <mxCell id="YtGU08_9XiSNCzKKEfij-96" value="" style="endArrow=none;dashed=1;html=1;rounded=0;fillColor=#CCCCCC;entryX=0;entryY=0;entryDx=0;entryDy=0;" edge="1" parent="1" source="YtGU08_9XiSNCzKKEfij-88" target="YtGU08_9XiSNCzKKEfij-103">
          <mxGeometry width="50" height="50" relative="1" as="geometry">
            <mxPoint x="1060" y="-197.76078120876252" as="sourcePoint" />
            <mxPoint x="1470" y="-198" as="targetPoint" />
          </mxGeometry>
        </mxCell>
        <mxCell id="YtGU08_9XiSNCzKKEfij-128" value="" style="endArrow=none;dashed=1;html=1;rounded=0;fillColor=#CCCCCC;entryX=0.99;entryY=0.97;entryDx=0;entryDy=0;entryPerimeter=0;exitX=0;exitY=0.01;exitDx=0;exitDy=0;exitPerimeter=0;" edge="1" parent="1" source="YtGU08_9XiSNCzKKEfij-132" target="YtGU08_9XiSNCzKKEfij-54">
          <mxGeometry width="50" height="50" relative="1" as="geometry">
            <mxPoint x="1860" y="372.23921879123793" as="sourcePoint" />
            <mxPoint x="2183.9000000000005" y="270.0000000000001" as="targetPoint" />
          </mxGeometry>
        </mxCell>
        <mxCell id="YtGU08_9XiSNCzKKEfij-145" value="" style="group" vertex="1" connectable="0" parent="1">
          <mxGeometry x="2110" y="450" width="615" height="706" as="geometry" />
        </mxCell>
        <mxCell id="YtGU08_9XiSNCzKKEfij-132" value="" style="whiteSpace=wrap;html=1;aspect=fixed;fillColor=#B3B3B3;align=center;" vertex="1" parent="YtGU08_9XiSNCzKKEfij-145">
          <mxGeometry width="615" height="615" as="geometry" />
        </mxCell>
        <mxCell id="YtGU08_9XiSNCzKKEfij-129" value="" style="rounded=0;whiteSpace=wrap;html=1;fillColor=#B3B3B3;align=center;" vertex="1" parent="YtGU08_9XiSNCzKKEfij-145">
          <mxGeometry x="90" y="95" width="210" height="300" as="geometry" />
        </mxCell>
        <mxCell id="YtGU08_9XiSNCzKKEfij-130" value="" style="rounded=0;whiteSpace=wrap;html=1;fillColor=#B3B3B3;align=center;" vertex="1" parent="YtGU08_9XiSNCzKKEfij-145">
          <mxGeometry x="340" y="95" width="210" height="300" as="geometry" />
        </mxCell>
        <mxCell id="YtGU08_9XiSNCzKKEfij-131" value="" style="edgeStyle=orthogonalEdgeStyle;rounded=0;orthogonalLoop=1;jettySize=auto;html=1;fillColor=#CCCCCC;" edge="1" parent="YtGU08_9XiSNCzKKEfij-145" source="YtGU08_9XiSNCzKKEfij-129" target="YtGU08_9XiSNCzKKEfij-130">
          <mxGeometry relative="1" as="geometry" />
        </mxCell>
        <mxCell id="YtGU08_9XiSNCzKKEfij-133" value="L3统一的高速缓存（所有的核共享）" style="rounded=0;whiteSpace=wrap;html=1;fillColor=#9AC7BF;align=center;" vertex="1" parent="YtGU08_9XiSNCzKKEfij-145">
          <mxGeometry x="60" y="485" width="520" height="60" as="geometry" />
        </mxCell>
        <mxCell id="YtGU08_9XiSNCzKKEfij-134" value="主存" style="rounded=0;whiteSpace=wrap;html=1;fillColor=#9AC7BF;align=center;" vertex="1" parent="YtGU08_9XiSNCzKKEfij-145">
          <mxGeometry x="60" y="646" width="520" height="60" as="geometry" />
        </mxCell>
        <mxCell id="YtGU08_9XiSNCzKKEfij-135" value="寄存器" style="rounded=0;whiteSpace=wrap;html=1;fillColor=#9AC7BF;align=center;" vertex="1" parent="YtGU08_9XiSNCzKKEfij-145">
          <mxGeometry x="100" y="125" width="120" height="60" as="geometry" />
        </mxCell>
        <mxCell id="YtGU08_9XiSNCzKKEfij-136" value="L1数据高速缓存" style="rounded=0;whiteSpace=wrap;html=1;fillColor=#9AC7BF;align=center;" vertex="1" parent="YtGU08_9XiSNCzKKEfij-145">
          <mxGeometry x="100" y="215" width="70" height="60" as="geometry" />
        </mxCell>
        <mxCell id="YtGU08_9XiSNCzKKEfij-137" value="L1指令高速缓存" style="rounded=0;whiteSpace=wrap;html=1;fillColor=#9AC7BF;align=center;" vertex="1" parent="YtGU08_9XiSNCzKKEfij-145">
          <mxGeometry x="200" y="215" width="70" height="60" as="geometry" />
        </mxCell>
        <mxCell id="YtGU08_9XiSNCzKKEfij-138" value="&lt;span&gt;L1数据高速缓存&lt;/span&gt;" style="rounded=0;whiteSpace=wrap;html=1;fillColor=#9AC7BF;align=center;" vertex="1" parent="YtGU08_9XiSNCzKKEfij-145">
          <mxGeometry x="370" y="215" width="70" height="60" as="geometry" />
        </mxCell>
        <mxCell id="YtGU08_9XiSNCzKKEfij-139" value="&lt;span&gt;L1指令高速缓存&lt;/span&gt;" style="rounded=0;whiteSpace=wrap;html=1;fillColor=#9AC7BF;align=center;" vertex="1" parent="YtGU08_9XiSNCzKKEfij-145">
          <mxGeometry x="470" y="215" width="70" height="60" as="geometry" />
        </mxCell>
        <mxCell id="YtGU08_9XiSNCzKKEfij-140" value="寄存器" style="rounded=0;whiteSpace=wrap;html=1;fillColor=#9AC7BF;align=center;" vertex="1" parent="YtGU08_9XiSNCzKKEfij-145">
          <mxGeometry x="350" y="125" width="120" height="60" as="geometry" />
        </mxCell>
        <mxCell id="YtGU08_9XiSNCzKKEfij-141" value="L2统一的高速缓存" style="rounded=0;whiteSpace=wrap;html=1;fillColor=#9AC7BF;align=center;" vertex="1" parent="YtGU08_9XiSNCzKKEfij-145">
          <mxGeometry x="100" y="305" width="190" height="60" as="geometry" />
        </mxCell>
        <mxCell id="YtGU08_9XiSNCzKKEfij-142" value="&lt;span&gt;L2统一的高速缓存&lt;/span&gt;" style="rounded=0;whiteSpace=wrap;html=1;fillColor=#9AC7BF;align=center;" vertex="1" parent="YtGU08_9XiSNCzKKEfij-145">
          <mxGeometry x="350" y="305" width="190" height="60" as="geometry" />
        </mxCell>
        <mxCell id="YtGU08_9XiSNCzKKEfij-143" value="核0" style="rounded=0;whiteSpace=wrap;html=1;fillColor=#99CCFF;align=center;" vertex="1" parent="YtGU08_9XiSNCzKKEfij-145">
          <mxGeometry x="90" y="55" width="80" height="31.25" as="geometry" />
        </mxCell>
        <mxCell id="YtGU08_9XiSNCzKKEfij-144" value="核3" style="rounded=0;whiteSpace=wrap;html=1;fillColor=#99CCFF;align=center;" vertex="1" parent="YtGU08_9XiSNCzKKEfij-145">
          <mxGeometry x="340" y="55" width="80" height="31.25" as="geometry" />
        </mxCell>
        <mxCell id="YtGU08_9XiSNCzKKEfij-146" value="" style="group" vertex="1" connectable="0" parent="1">
          <mxGeometry x="1260" y="-440" width="570" height="360" as="geometry" />
        </mxCell>
        <mxCell id="YtGU08_9XiSNCzKKEfij-107" value="" style="group" vertex="1" connectable="0" parent="YtGU08_9XiSNCzKKEfij-146">
          <mxGeometry x="220" width="160" height="360" as="geometry" />
        </mxCell>
        <mxCell id="YtGU08_9XiSNCzKKEfij-97" value="内核虚拟内存" style="rounded=0;whiteSpace=wrap;html=1;fillColor=#B3B3B3;align=center;" vertex="1" parent="YtGU08_9XiSNCzKKEfij-107">
          <mxGeometry width="160" height="40" as="geometry" />
        </mxCell>
        <mxCell id="YtGU08_9XiSNCzKKEfij-98" value="向下...向上" style="rounded=0;whiteSpace=wrap;html=1;fillColor=#99CCFF;align=center;" vertex="1" parent="YtGU08_9XiSNCzKKEfij-107">
          <mxGeometry y="80" width="160" height="40" as="geometry" />
        </mxCell>
        <mxCell id="YtGU08_9XiSNCzKKEfij-99" value="共享的内存映射区域" style="rounded=0;whiteSpace=wrap;html=1;fillColor=#B3B3B3;align=center;" vertex="1" parent="YtGU08_9XiSNCzKKEfij-107">
          <mxGeometry y="120" width="160" height="40" as="geometry" />
        </mxCell>
        <mxCell id="YtGU08_9XiSNCzKKEfij-100" value="...向上" style="rounded=0;whiteSpace=wrap;html=1;fillColor=#99CCFF;align=center;" vertex="1" parent="YtGU08_9XiSNCzKKEfij-107">
          <mxGeometry y="160" width="160" height="40" as="geometry" />
        </mxCell>
        <mxCell id="YtGU08_9XiSNCzKKEfij-101" value="运行时堆&lt;br&gt;（在运行时由malloc创建的）" style="rounded=0;whiteSpace=wrap;html=1;fillColor=#B3B3B3;align=center;" vertex="1" parent="YtGU08_9XiSNCzKKEfij-107">
          <mxGeometry y="200" width="160" height="40" as="geometry" />
        </mxCell>
        <mxCell id="YtGU08_9XiSNCzKKEfij-102" value="用户栈（运行时创建）" style="rounded=0;whiteSpace=wrap;html=1;fillColor=#B3B3B3;align=center;" vertex="1" parent="YtGU08_9XiSNCzKKEfij-107">
          <mxGeometry y="40" width="160" height="40" as="geometry" />
        </mxCell>
        <mxCell id="YtGU08_9XiSNCzKKEfij-103" value="读写数据" style="rounded=0;whiteSpace=wrap;html=1;fillColor=#B3B3B3;align=center;" vertex="1" parent="YtGU08_9XiSNCzKKEfij-107">
          <mxGeometry y="240" width="160" height="40" as="geometry" />
        </mxCell>
        <mxCell id="YtGU08_9XiSNCzKKEfij-104" value="只读代码和数据" style="rounded=0;whiteSpace=wrap;html=1;fillColor=#B3B3B3;align=center;" vertex="1" parent="YtGU08_9XiSNCzKKEfij-107">
          <mxGeometry y="280" width="160" height="40" as="geometry" />
        </mxCell>
        <mxCell id="YtGU08_9XiSNCzKKEfij-105" value="" style="rounded=0;whiteSpace=wrap;html=1;fillColor=#99CCFF;align=center;" vertex="1" parent="YtGU08_9XiSNCzKKEfij-107">
          <mxGeometry y="320" width="160" height="40" as="geometry" />
        </mxCell>
        <mxCell id="YtGU08_9XiSNCzKKEfij-118" value="共享对象的最终转载地址在编译的时是不确定的，需要根据当前地址空间的空闲状况，分配一块足够大小的虚拟地址空间使用" style="rounded=0;whiteSpace=wrap;html=1;fillColor=#FFCCCC;align=center;" vertex="1" parent="YtGU08_9XiSNCzKKEfij-146">
          <mxGeometry x="450" y="80" width="120" height="120" as="geometry" />
        </mxCell>
        <mxCell id="YtGU08_9XiSNCzKKEfij-119" value="从hello可执行文件加载进来的" style="rounded=0;whiteSpace=wrap;html=1;fillColor=#FFCCCC;align=center;" vertex="1" parent="YtGU08_9XiSNCzKKEfij-146">
          <mxGeometry x="450" y="240" width="120" height="80" as="geometry" />
        </mxCell>
        <mxCell id="YtGU08_9XiSNCzKKEfij-120" value="程序开始" style="rounded=0;whiteSpace=wrap;html=1;fillColor=#FFCCCC;align=center;" vertex="1" parent="YtGU08_9XiSNCzKKEfij-146">
          <mxGeometry y="320" width="120" height="40" as="geometry" />
        </mxCell>
        <mxCell id="YtGU08_9XiSNCzKKEfij-127" value="" style="endArrow=classic;html=1;rounded=0;entryX=0;entryY=1;entryDx=0;entryDy=0;exitX=1;exitY=0;exitDx=0;exitDy=0;" edge="1" parent="YtGU08_9XiSNCzKKEfij-146" source="YtGU08_9XiSNCzKKEfij-120" target="YtGU08_9XiSNCzKKEfij-104">
          <mxGeometry width="50" height="50" relative="1" as="geometry">
            <mxPoint x="120" y="170" as="sourcePoint" />
            <mxPoint x="75" y="264" as="targetPoint" />
          </mxGeometry>
        </mxCell>
        <mxCell id="YtGU08_9XiSNCzKKEfij-147" value="" style="group" vertex="1" connectable="0" parent="1">
          <mxGeometry x="235" y="115" width="955" height="955" as="geometry" />
        </mxCell>
        <mxCell id="YtGU08_9XiSNCzKKEfij-121" value="" style="shape=flexArrow;endArrow=classic;html=1;rounded=0;fillColor=#CCCCCC;entryX=0.5;entryY=0;entryDx=0;entryDy=0;" edge="1" parent="YtGU08_9XiSNCzKKEfij-147">
          <mxGeometry width="50" height="50" relative="1" as="geometry">
            <mxPoint x="899.5" y="585" as="sourcePoint" />
            <mxPoint x="899.5" y="665" as="targetPoint" />
          </mxGeometry>
        </mxCell>
        <mxCell id="YtGU08_9XiSNCzKKEfij-38" value="" style="shape=flexArrow;endArrow=classic;html=1;rounded=0;fillColor=#CCCCCC;entryX=0.5;entryY=0;entryDx=0;entryDy=0;" edge="1" parent="YtGU08_9XiSNCzKKEfij-147" target="YtGU08_9XiSNCzKKEfij-28">
          <mxGeometry width="50" height="50" relative="1" as="geometry">
            <mxPoint x="690" y="565" as="sourcePoint" />
            <mxPoint x="396.0000000000002" y="655" as="targetPoint" />
          </mxGeometry>
        </mxCell>
        <mxCell id="YtGU08_9XiSNCzKKEfij-35" value="" style="shape=flexArrow;endArrow=classic;html=1;rounded=0;fillColor=#CCCCCC;entryX=0.5;entryY=0;entryDx=0;entryDy=0;" edge="1" parent="YtGU08_9XiSNCzKKEfij-147" target="YtGU08_9XiSNCzKKEfij-27">
          <mxGeometry width="50" height="50" relative="1" as="geometry">
            <mxPoint x="330" y="565" as="sourcePoint" />
            <mxPoint x="155" y="655" as="targetPoint" />
          </mxGeometry>
        </mxCell>
        <mxCell id="YtGU08_9XiSNCzKKEfij-34" value="" style="shape=flexArrow;endArrow=classic;html=1;rounded=0;fillColor=#CCCCCC;entryX=0.5;entryY=0;entryDx=0;entryDy=0;" edge="1" parent="YtGU08_9XiSNCzKKEfij-147" target="YtGU08_9XiSNCzKKEfij-26">
          <mxGeometry width="50" height="50" relative="1" as="geometry">
            <mxPoint x="145" y="565" as="sourcePoint" />
            <mxPoint x="405" y="525" as="targetPoint" />
          </mxGeometry>
        </mxCell>
        <mxCell id="YtGU08_9XiSNCzKKEfij-1" value="" style="whiteSpace=wrap;html=1;aspect=fixed;fillColor=#999999;" vertex="1" parent="YtGU08_9XiSNCzKKEfij-147">
          <mxGeometry width="480" height="480" as="geometry" />
        </mxCell>
        <mxCell id="YtGU08_9XiSNCzKKEfij-2" value="CPU" style="rounded=1;whiteSpace=wrap;html=1;fillColor=#E6D0DE;" vertex="1" parent="YtGU08_9XiSNCzKKEfij-147">
          <mxGeometry x="15" y="25" width="80" height="30" as="geometry" />
        </mxCell>
        <mxCell id="YtGU08_9XiSNCzKKEfij-3" value="PC" style="rounded=1;whiteSpace=wrap;html=1;fillColor=#66FF66;" vertex="1" parent="YtGU08_9XiSNCzKKEfij-147">
          <mxGeometry x="55" y="150" width="80" height="30" as="geometry" />
        </mxCell>
        <mxCell id="YtGU08_9XiSNCzKKEfij-4" value="PC" style="rounded=1;whiteSpace=wrap;html=1;" vertex="1" parent="YtGU08_9XiSNCzKKEfij-147">
          <mxGeometry x="205" y="85" width="70" height="190" as="geometry" />
        </mxCell>
        <mxCell id="YtGU08_9XiSNCzKKEfij-6" value="" style="rounded=0;whiteSpace=wrap;html=1;" vertex="1" parent="YtGU08_9XiSNCzKKEfij-147">
          <mxGeometry x="205" y="105" width="70" height="30" as="geometry" />
        </mxCell>
        <mxCell id="YtGU08_9XiSNCzKKEfij-7" value="" style="rounded=0;whiteSpace=wrap;html=1;" vertex="1" parent="YtGU08_9XiSNCzKKEfij-147">
          <mxGeometry x="205" y="165" width="70" height="30" as="geometry" />
        </mxCell>
        <mxCell id="YtGU08_9XiSNCzKKEfij-8" value="" style="rounded=0;whiteSpace=wrap;html=1;" vertex="1" parent="YtGU08_9XiSNCzKKEfij-147">
          <mxGeometry x="205" y="225" width="70" height="30" as="geometry" />
        </mxCell>
        <mxCell id="YtGU08_9XiSNCzKKEfij-9" value="寄存器文件" style="rounded=1;whiteSpace=wrap;html=1;fillColor=#CCFF99;" vertex="1" parent="YtGU08_9XiSNCzKKEfij-147">
          <mxGeometry x="200" y="45" width="80" height="30" as="geometry" />
        </mxCell>
        <mxCell id="YtGU08_9XiSNCzKKEfij-10" value="ALU" style="rounded=0;whiteSpace=wrap;html=1;fillColor=#FF99CC;" vertex="1" parent="YtGU08_9XiSNCzKKEfij-147">
          <mxGeometry x="365" y="145" width="90" height="40" as="geometry" />
        </mxCell>
        <mxCell id="YtGU08_9XiSNCzKKEfij-11" value="总线接口" style="rounded=0;whiteSpace=wrap;html=1;fillColor=#FFFF66;" vertex="1" parent="YtGU08_9XiSNCzKKEfij-147">
          <mxGeometry x="125" y="355" width="210" height="60" as="geometry" />
        </mxCell>
        <mxCell id="YtGU08_9XiSNCzKKEfij-12" value="" style="shape=doubleArrow;whiteSpace=wrap;html=1;fillColor=#FF9999;" vertex="1" parent="YtGU08_9XiSNCzKKEfij-147">
          <mxGeometry x="275" y="145" width="90" height="40" as="geometry" />
        </mxCell>
        <mxCell id="YtGU08_9XiSNCzKKEfij-13" value="" style="shape=doubleArrow;whiteSpace=wrap;html=1;fillColor=#FF9999;rotation=90;" vertex="1" parent="YtGU08_9XiSNCzKKEfij-147">
          <mxGeometry x="200" y="294" width="80" height="40" as="geometry" />
        </mxCell>
        <mxCell id="YtGU08_9XiSNCzKKEfij-14" value="" style="shape=doubleArrow;whiteSpace=wrap;html=1;fillColor=#FF9999;rotation=-180;" vertex="1" parent="YtGU08_9XiSNCzKKEfij-147">
          <mxGeometry x="335" y="365" width="210" height="40" as="geometry" />
        </mxCell>
        <mxCell id="YtGU08_9XiSNCzKKEfij-16" value="I/O桥" style="rounded=0;whiteSpace=wrap;html=1;fillColor=#FFFF66;" vertex="1" parent="YtGU08_9XiSNCzKKEfij-147">
          <mxGeometry x="545" y="355" width="110" height="60" as="geometry" />
        </mxCell>
        <mxCell id="YtGU08_9XiSNCzKKEfij-17" value="" style="shape=doubleArrow;whiteSpace=wrap;html=1;fillColor=#FF9999;rotation=-180;" vertex="1" parent="YtGU08_9XiSNCzKKEfij-147">
          <mxGeometry x="655" y="365" width="130" height="40" as="geometry" />
        </mxCell>
        <mxCell id="YtGU08_9XiSNCzKKEfij-18" value="主存储器" style="rounded=0;whiteSpace=wrap;html=1;fillColor=#FFFF66;" vertex="1" parent="YtGU08_9XiSNCzKKEfij-147">
          <mxGeometry x="785" y="345" width="110" height="80" as="geometry" />
        </mxCell>
        <mxCell id="YtGU08_9XiSNCzKKEfij-19" value="系统总线" style="ellipse;shape=doubleEllipse;whiteSpace=wrap;html=1;fillColor=#FFCC99;" vertex="1" parent="YtGU08_9XiSNCzKKEfij-147">
          <mxGeometry x="515" y="234" width="100" height="60" as="geometry" />
        </mxCell>
        <mxCell id="YtGU08_9XiSNCzKKEfij-20" value="内存总线" style="ellipse;shape=doubleEllipse;whiteSpace=wrap;html=1;fillColor=#FFCC99;" vertex="1" parent="YtGU08_9XiSNCzKKEfij-147">
          <mxGeometry x="715" y="225" width="100" height="60" as="geometry" />
        </mxCell>
        <mxCell id="YtGU08_9XiSNCzKKEfij-21" value="" style="endArrow=classic;html=1;rounded=0;entryX=0;entryY=0;entryDx=105;entryDy=26;entryPerimeter=0;exitX=0.5;exitY=1;exitDx=0;exitDy=0;" edge="1" parent="YtGU08_9XiSNCzKKEfij-147" source="YtGU08_9XiSNCzKKEfij-19" target="YtGU08_9XiSNCzKKEfij-14">
          <mxGeometry width="50" height="50" relative="1" as="geometry">
            <mxPoint x="355" y="185" as="sourcePoint" />
            <mxPoint x="405" y="135" as="targetPoint" />
          </mxGeometry>
        </mxCell>
        <mxCell id="YtGU08_9XiSNCzKKEfij-22" value="" style="endArrow=classic;html=1;rounded=0;entryX=0;entryY=0;entryDx=65;entryDy=26;entryPerimeter=0;exitX=0.5;exitY=1;exitDx=0;exitDy=0;" edge="1" parent="YtGU08_9XiSNCzKKEfij-147" source="YtGU08_9XiSNCzKKEfij-20" target="YtGU08_9XiSNCzKKEfij-17">
          <mxGeometry width="50" height="50" relative="1" as="geometry">
            <mxPoint x="710" y="234" as="sourcePoint" />
            <mxPoint x="585" y="319.0000000000002" as="targetPoint" />
          </mxGeometry>
        </mxCell>
        <mxCell id="YtGU08_9XiSNCzKKEfij-23" value="" style="shape=doubleArrow;whiteSpace=wrap;html=1;fillColor=#FF9999;rotation=90;" vertex="1" parent="YtGU08_9XiSNCzKKEfij-147">
          <mxGeometry x="528.75" y="466.25" width="142.5" height="40" as="geometry" />
        </mxCell>
        <mxCell id="YtGU08_9XiSNCzKKEfij-25" value="" style="shape=flexArrow;endArrow=classic;startArrow=none;html=1;rounded=0;fillColor=#CCCCCC;" edge="1" parent="YtGU08_9XiSNCzKKEfij-147" source="YtGU08_9XiSNCzKKEfij-30">
          <mxGeometry width="100" height="100" relative="1" as="geometry">
            <mxPoint x="35" y="565" as="sourcePoint" />
            <mxPoint x="945" y="565" as="targetPoint" />
          </mxGeometry>
        </mxCell>
        <mxCell id="YtGU08_9XiSNCzKKEfij-26" value="USB&lt;br&gt;控制器" style="rounded=0;whiteSpace=wrap;html=1;fillColor=#FFFF66;" vertex="1" parent="YtGU08_9XiSNCzKKEfij-147">
          <mxGeometry x="90" y="645" width="110" height="80" as="geometry" />
        </mxCell>
        <mxCell id="YtGU08_9XiSNCzKKEfij-27" value="图形适配器" style="rounded=0;whiteSpace=wrap;html=1;fillColor=#FFFF66;" vertex="1" parent="YtGU08_9XiSNCzKKEfij-147">
          <mxGeometry x="275" y="645" width="110" height="80" as="geometry" />
        </mxCell>
        <mxCell id="YtGU08_9XiSNCzKKEfij-28" value="磁盘控制器" style="rounded=0;whiteSpace=wrap;html=1;fillColor=#FFFF66;" vertex="1" parent="YtGU08_9XiSNCzKKEfij-147">
          <mxGeometry x="635" y="645" width="110" height="50" as="geometry" />
        </mxCell>
        <mxCell id="YtGU08_9XiSNCzKKEfij-30" value="" style="rounded=0;whiteSpace=wrap;html=1;fillColor=#FFCC99;rotation=90;" vertex="1" parent="YtGU08_9XiSNCzKKEfij-147">
          <mxGeometry x="815" y="550" width="90" height="30" as="geometry" />
        </mxCell>
        <mxCell id="YtGU08_9XiSNCzKKEfij-31" value="" style="shape=flexArrow;endArrow=none;startArrow=classic;html=1;rounded=0;fillColor=#CCCCCC;" edge="1" parent="YtGU08_9XiSNCzKKEfij-147" target="YtGU08_9XiSNCzKKEfij-30">
          <mxGeometry width="100" height="100" relative="1" as="geometry">
            <mxPoint x="35" y="565" as="sourcePoint" />
            <mxPoint x="925" y="565" as="targetPoint" />
          </mxGeometry>
        </mxCell>
        <mxCell id="YtGU08_9XiSNCzKKEfij-32" value="" style="rounded=0;whiteSpace=wrap;html=1;fillColor=#FFCC99;rotation=90;" vertex="1" parent="YtGU08_9XiSNCzKKEfij-147">
          <mxGeometry x="855" y="550" width="90" height="30" as="geometry" />
        </mxCell>
        <mxCell id="YtGU08_9XiSNCzKKEfij-29" value="" style="rounded=0;whiteSpace=wrap;html=1;fillColor=#FFCC99;rotation=90;" vertex="1" parent="YtGU08_9XiSNCzKKEfij-147">
          <mxGeometry x="775" y="550" width="90" height="30" as="geometry" />
        </mxCell>
        <mxCell id="YtGU08_9XiSNCzKKEfij-33" value="磁盘" style="shape=cylinder3;whiteSpace=wrap;html=1;boundedLbl=1;backgroundOutline=1;size=15;fillColor=#FFCC99;" vertex="1" parent="YtGU08_9XiSNCzKKEfij-147">
          <mxGeometry x="660" y="775" width="60" height="80" as="geometry" />
        </mxCell>
        <mxCell id="YtGU08_9XiSNCzKKEfij-36" value="IO总线" style="ellipse;shape=doubleEllipse;whiteSpace=wrap;html=1;fillColor=#FFCC99;" vertex="1" parent="YtGU08_9XiSNCzKKEfij-147">
          <mxGeometry x="455" y="635" width="100" height="60" as="geometry" />
        </mxCell>
        <mxCell id="YtGU08_9XiSNCzKKEfij-37" value="" style="endArrow=classic;html=1;rounded=0;exitX=0.5;exitY=0;exitDx=0;exitDy=0;" edge="1" parent="YtGU08_9XiSNCzKKEfij-147" source="YtGU08_9XiSNCzKKEfij-36">
          <mxGeometry width="50" height="50" relative="1" as="geometry">
            <mxPoint x="575" y="304" as="sourcePoint" />
            <mxPoint x="605" y="575" as="targetPoint" />
          </mxGeometry>
        </mxCell>
        <mxCell id="YtGU08_9XiSNCzKKEfij-39" value="" style="endArrow=classic;startArrow=classic;html=1;rounded=0;fillColor=#CCCCCC;entryX=0.5;entryY=1;entryDx=0;entryDy=0;" edge="1" parent="YtGU08_9XiSNCzKKEfij-147" source="YtGU08_9XiSNCzKKEfij-33" target="YtGU08_9XiSNCzKKEfij-28">
          <mxGeometry width="50" height="50" relative="1" as="geometry">
            <mxPoint x="355" y="625" as="sourcePoint" />
            <mxPoint x="405" y="575" as="targetPoint" />
          </mxGeometry>
        </mxCell>
        <mxCell id="YtGU08_9XiSNCzKKEfij-46" value="鼠标" style="rhombus;whiteSpace=wrap;html=1;fillColor=#7EA6E0;align=center;" vertex="1" parent="YtGU08_9XiSNCzKKEfij-147">
          <mxGeometry x="85" y="745" width="60" height="60" as="geometry" />
        </mxCell>
        <mxCell id="YtGU08_9XiSNCzKKEfij-48" value="键盘" style="rhombus;whiteSpace=wrap;html=1;fillColor=#7EA6E0;align=center;" vertex="1" parent="YtGU08_9XiSNCzKKEfij-147">
          <mxGeometry x="140" y="795" width="60" height="60" as="geometry" />
        </mxCell>
        <mxCell id="YtGU08_9XiSNCzKKEfij-49" value="用户输入“./hello”" style="ellipse;shape=cloud;whiteSpace=wrap;html=1;fillColor=#999999;align=center;" vertex="1" parent="YtGU08_9XiSNCzKKEfij-147">
          <mxGeometry x="125" y="875" width="120" height="80" as="geometry" />
        </mxCell>
        <mxCell id="YtGU08_9XiSNCzKKEfij-50" value="" style="endArrow=classic;html=1;rounded=0;fillColor=#CCCCCC;entryX=0.75;entryY=1;entryDx=0;entryDy=0;exitX=0.5;exitY=0;exitDx=0;exitDy=0;" edge="1" parent="YtGU08_9XiSNCzKKEfij-147" source="YtGU08_9XiSNCzKKEfij-48" target="YtGU08_9XiSNCzKKEfij-26">
          <mxGeometry width="50" height="50" relative="1" as="geometry">
            <mxPoint x="175" y="715" as="sourcePoint" />
            <mxPoint x="225" y="665" as="targetPoint" />
          </mxGeometry>
        </mxCell>
        <mxCell id="YtGU08_9XiSNCzKKEfij-53" value="存储在磁盘上的&lt;br&gt;hello文件" style="ellipse;shape=cloud;whiteSpace=wrap;html=1;fillColor=#999999;align=center;" vertex="1" parent="YtGU08_9XiSNCzKKEfij-147">
          <mxGeometry x="495" y="785" width="120" height="80" as="geometry" />
        </mxCell>
        <mxCell id="YtGU08_9XiSNCzKKEfij-122" value="网络适配器" style="rounded=0;whiteSpace=wrap;html=1;fillColor=#99CCFF;" vertex="1" parent="YtGU08_9XiSNCzKKEfij-147">
          <mxGeometry x="845" y="665" width="110" height="40" as="geometry" />
        </mxCell>
        <mxCell id="YtGU08_9XiSNCzKKEfij-124" value="网络" style="rounded=0;whiteSpace=wrap;html=1;fillColor=#99CCFF;" vertex="1" parent="YtGU08_9XiSNCzKKEfij-147">
          <mxGeometry x="845" y="775" width="110" height="40" as="geometry" />
        </mxCell>
        <mxCell id="YtGU08_9XiSNCzKKEfij-126" value="" style="endArrow=none;startArrow=classic;html=1;rounded=0;fillColor=#CCCCCC;exitX=0.5;exitY=1;exitDx=0;exitDy=0;" edge="1" parent="YtGU08_9XiSNCzKKEfij-147" source="YtGU08_9XiSNCzKKEfij-122">
          <mxGeometry width="50" height="50" relative="1" as="geometry">
            <mxPoint x="900" y="825" as="sourcePoint" />
            <mxPoint x="900" y="775" as="targetPoint" />
          </mxGeometry>
        </mxCell>
      </root>
    </mxGraphModel>
  </diagram>
</mxfile>
